<svg width="256" height="320" xmlns="http://www.w3.org/2000/svg">
  <!-- Background -->
  <rect width="256" height="320" fill="#ffffff"/>
  
  <!-- QR Code Placeholder (Simple squares pattern) -->
  <g id="qr-pattern">
    <!-- Top-left position marker -->
    <rect x="20" y="20" width="60" height="60" fill="#000000"/>
    <rect x="30" y="30" width="40" height="40" fill="#ffffff"/>
    <rect x="40" y="40" width="20" height="20" fill="#000000"/>
    
    <!-- Top-right position marker -->
    <rect x="176" y="20" width="60" height="60" fill="#000000"/>
    <rect x="186" y="30" width="40" height="40" fill="#ffffff"/>
    <rect x="196" y="40" width="20" height="20" fill="#000000"/>
    
    <!-- Bottom-left position marker -->
    <rect x="20" y="176" width="60" height="60" fill="#000000"/>
    <rect x="30" y="186" width="40" height="40" fill="#ffffff"/>
    <rect x="40" y="196" width="20" height="20" fill="#000000"/>
    
    <!-- QR data pattern (simplified) -->
    <rect x="90" y="20" width="10" height="10" fill="#000000"/>
    <rect x="110" y="20" width="10" height="10" fill="#000000"/>
    <rect x="130" y="20" width="10" height="10" fill="#000000"/>
    <rect x="150" y="20" width="10" height="10" fill="#000000"/>
    
    <rect x="20" y="90" width="10" height="10" fill="#000000"/>
    <rect x="40" y="90" width="10" height="10" fill="#000000"/>
    <rect x="60" y="90" width="10" height="10" fill="#000000"/>
    
    <rect x="90" y="90" width="76" height="76" fill="#000000"/>
    <rect x="100" y="100" width="56" height="56" fill="#ffffff"/>
    <rect x="110" y="110" width="36" height="36" fill="#000000"/>
    <rect x="120" y="120" width="16" height="16" fill="#ffffff"/>
    
    <rect x="176" y="90" width="10" height="10" fill="#000000"/>
    <rect x="196" y="90" width="10" height="10" fill="#000000"/>
    <rect x="216" y="90" width="10" height="10" fill="#000000"/>
    
    <rect x="90" y="176" width="10" height="10" fill="#000000"/>
    <rect x="110" y="176" width="10" height="10" fill="#000000"/>
    <rect x="130" y="176" width="10" height="10" fill="#000000"/>
    <rect x="150" y="196" width="10" height="10" fill="#000000"/>
    <rect x="170" y="216" width="10" height="10" fill="#000000"/>
    
    <rect x="196" y="176" width="10" height="10" fill="#000000"/>
    <rect x="216" y="196" width="10" height="10" fill="#000000"/>
    <rect x="176" y="216" width="10" height="10" fill="#000000"/>
  </g>
  
  <!-- Bank Info Text -->
  <text x="128" y="260" font-family="Arial, sans-serif" font-size="14" font-weight="bold" text-anchor="middle" fill="#000000">MB Bank</text>
  <text x="128" y="280" font-family="Arial, sans-serif" font-size="12" text-anchor="middle" fill="#666666">9724 2220 3982 1491</text>
  <text x="128" y="300" font-family="Arial, sans-serif" font-size="11" text-anchor="middle" fill="#999999">Restaurant Pro</text>
</svg>
